# xmcd CD database file
#
# Track frame offsets:
#	150
#	15141
#	32697
#	48038
#	61973
#	78782
#	95734
#	111762
#	134916
#	147203
#	163740
#	192487
#	216872
#	233882
#	250997
#	265630
#	280535
#
# Disc length: 3983 seconds
#
# Revision: 0
# Processed by: cddbd v1.5.2PL0 Copyright (c) Steve Scherf et al.
# Submitted via: CDex 1.70beta2
#
DISCID=e70f8d11
DTITLE=Boogie Blasters - A Pint Of Boogie
DYEAR=2013
DGENRE=Jazz
TTITLE0=Tommy Dorsey Boogie
TTITLE1=I Wish That You'll Be Mine
TTITLE2=Let's Boogie
TTITLE3=Buona Sera Signorina
TTITLE4=Barnyard Boogie
TTITLE5=Berlin Boogie
TTITLE6=Won't You Play With Me
TTITLE7=For Meade
TTITLE8=I Don't Like It
TTITLE9=Early In The Morning
TTITLE10=My Song Is Don't Worry
TTITLE11=Down The Road A Piece
TTITLE12=Olsenboogie
TTITLE13=Hand It Over
TTITLE14=Short Fat Fanny
TTITLE15=Sick And Tired
TTITLE16=Jump, Jive And Wail
EXTD=YEAR: 2013
EXTT0=
EXTT1=
EXTT2=
EXTT3=
EXTT4=
EXTT5=
EXTT6=
EXTT7=
EXTT8=
EXTT9=
EXTT10=
EXTT11=
EXTT12=
EXTT13=
EXTT14=
EXTT15=
EXTT16=
PLAYORDER=
